<svg fill="#000000" xmlns="http://www.w3.org/2000/svg"  viewBox="0 0 64 64" width="64px" height="64px"><path d="M45 31h-2c-.552 0-1 .447-1 1s.448 1 1 1h2c.552 0 1-.447 1-1S45.552 31 45 31zM32 42c-.552 0-1 .447-1 1v2c0 .553.448 1 1 1s1-.447 1-1v-2C33 42.447 32.552 42 32 42zM40.485 39.071c-.391-.391-1.023-.391-1.414 0s-.391 1.023 0 1.414l1.414 1.414c.195.195.451.293.707.293s.512-.098.707-.293c.391-.391.391-1.023 0-1.414L40.485 39.071zM39.778 25.222c.256 0 .512-.098.707-.293l1.414-1.414c.391-.391.391-1.023 0-1.414s-1.023-.391-1.414 0l-1.414 1.414c-.391.391-.391 1.023 0 1.414C39.267 25.124 39.522 25.222 39.778 25.222zM44.428 35.943l-1.854-.749c-.511-.208-1.095.041-1.302.552-.207.513.041 1.096.553 1.302l1.854.749c.123.05.25.073.374.073.396 0 .771-.236.928-.625C45.187 36.732 44.94 36.149 44.428 35.943zM37.218 41.735c-.216-.509-.801-.744-1.312-.53-.508.217-.745.804-.529 1.312l.782 1.841c.162.381.532.609.921.609.13 0 .263-.025.391-.079.508-.217.745-.804.529-1.312L37.218 41.735zM41.205 28.093c.162.381.532.609.921.609.13 0 .263-.025.39-.079l1.841-.781c.508-.216.746-.803.53-1.312s-.803-.745-1.311-.53l-1.841.781C41.227 26.997 40.989 27.584 41.205 28.093z"/><path d="M59.728,26.651l-6.893-1.731c-0.302-0.882-0.674-1.77-1.11-2.638l3.664-6.106c0.709-1.183,0.524-2.689-0.451-3.665l-3.449-3.448c-0.976-0.975-2.481-1.16-3.665-0.451l-6.107,3.658c-0.874-0.434-1.762-0.805-2.644-1.1l-1.724-6.898C37.014,2.935,35.817,2,34.438,2h-4.877c-1.379,0-2.576,0.935-2.911,2.272l-1.729,6.893c-0.877,0.3-1.765,0.671-2.639,1.11l-6.107-3.664c-1.182-0.709-2.688-0.523-3.664,0.451l-3.449,3.448c-0.975,0.976-1.16,2.482-0.451,3.665l3.659,6.106c-0.431,0.868-0.803,1.756-1.101,2.646l-6.896,1.724C2.935,26.985,2,28.183,2,29.562v4.877c0,1.379,0.935,2.576,2.272,2.91l6.893,1.731c0.302,0.882,0.674,1.77,1.11,2.638l-3.664,6.106c-0.709,1.183-0.524,2.689,0.451,3.665l3.449,3.448c0.976,0.975,2.482,1.161,3.665,0.451l6.107-3.658c0.874,0.434,1.762,0.805,2.644,1.1l1.724,6.898C26.986,61.065,28.183,62,29.562,62h4.877c1.379,0,2.576-0.935,2.911-2.272l1.729-6.893c0.877-0.3,1.765-0.671,2.639-1.11l6.107,3.664c1.183,0.71,2.689,0.523,3.664-0.451l3.449-3.448c0.975-0.976,1.16-2.482,0.451-3.665l-3.659-6.106c0.431-0.868,0.803-1.756,1.101-2.646l6.896-1.724C61.065,37.015,62,35.817,62,34.438v-4.877C62,28.183,61.065,26.985,59.728,26.651z M60,34.438c0,0.46-0.312,0.858-0.758,0.971l-6.897,1.724c-0.656,0.164-1.18,0.65-1.402,1.299c-0.273,0.801-0.611,1.606-1.003,2.396c-0.307,0.617-0.28,1.334,0.071,1.919l3.664,6.106c0.236,0.394,0.174,0.896-0.15,1.222l-3.449,3.448c-0.326,0.324-0.829,0.385-1.221,0.15l-6.106-3.664c-0.584-0.351-1.302-0.378-1.918-0.07c-0.795,0.394-1.602,0.731-2.397,1.003c-0.649,0.223-1.135,0.747-1.299,1.403l-1.724,6.896C35.297,59.688,34.898,60,34.438,60h-4.877c-0.459,0-0.859-0.312-0.97-0.757l-1.724-6.897c-0.164-0.656-0.649-1.181-1.299-1.403c-0.795-0.271-1.601-0.609-2.396-1.003c-0.286-0.143-0.593-0.213-0.899-0.213c-0.354,0-0.706,0.095-1.02,0.283l-6.106,3.664c-0.394,0.235-0.896,0.174-1.222-0.15l-3.448-3.448c-0.325-0.325-0.387-0.828-0.151-1.222l3.664-6.106c0.351-0.585,0.377-1.302,0.071-1.918c-0.392-0.791-0.73-1.597-1.003-2.397c-0.222-0.648-0.747-1.135-1.403-1.299l-6.896-1.724C4.312,35.297,4,34.898,4,34.438v-4.877c0-0.46,0.312-0.858,0.758-0.971l6.897-1.724c0.656-0.164,1.18-0.65,1.402-1.299c0.273-0.801,0.611-1.606,1.003-2.396c0.307-0.617,0.28-1.334-0.071-1.919l-3.664-6.106c-0.236-0.394-0.174-0.896,0.15-1.222l3.449-3.448c0.324-0.324,0.827-0.386,1.221-0.15l6.106,3.664c0.584,0.351,1.302,0.378,1.918,0.07c0.795-0.394,1.602-0.731,2.397-1.003c0.649-0.223,1.135-0.747,1.299-1.403l1.724-6.896C28.703,4.312,29.102,4,29.562,4h4.877c0.459,0,0.859,0.312,0.97,0.757l1.724,6.897c0.164,0.656,0.649,1.181,1.299,1.403c0.795,0.271,1.601,0.609,2.396,1.003c0.616,0.309,1.334,0.281,1.919-0.07l6.106-3.664c0.395-0.235,0.897-0.174,1.222,0.15l3.448,3.448c0.325,0.325,0.387,0.828,0.151,1.222l-3.664,6.106c-0.351,0.585-0.377,1.302-0.071,1.918c0.392,0.791,0.73,1.597,1.003,2.397c0.222,0.648,0.747,1.135,1.403,1.299l6.896,1.724C59.688,28.703,60,29.102,60,29.562V34.438z"/><path d="M32,24c-4.411,0-8,3.589-8,8s3.589,8,8,8s8-3.589,8-8S36.411,24,32,24z M32,38c-3.309,0-6-2.691-6-6s2.691-6,6-6s6,2.691,6,6S35.309,38,32,38z"/><path d="M26.386 42.608C22.447 40.521 20 36.455 20 32c0-5.54 3.752-10.332 9.124-11.653.536-.132.864-.673.732-1.21-.132-.536-.673-.868-1.21-.731C22.378 19.946 18 25.537 18 32c0 5.197 2.854 9.939 7.45 12.376.149.079.31.116.467.116.358 0 .705-.193.884-.531C27.06 43.473 26.875 42.867 26.386 42.608zM33.611 20.107c.716.096 1.428.258 2.117.482.103.033.207.049.31.049.421 0 .813-.269.951-.69.171-.525-.116-1.09-.641-1.261-.804-.262-1.635-.451-2.471-.562-.539-.069-1.05.312-1.124.858C32.679 19.531 33.063 20.034 33.611 20.107zM32 30A2 2 0 1 0 32 34 2 2 0 1 0 32 30z"/></svg>